HIERARCHY
ROOT Hips
{
	OFFSET -3.958830 18.904000 13.208200
	CHANNELS 6 Xposition Yposition Zposition Zrotation Yrotation Xrotation 
	JOINT LHipJoint
	{
		OFFSET 0.000000 0.000000 0.000000
		CHANNELS 3 Zrotation Yrotation Xrotation
		JOINT LeftUpLeg
		{
			OFFSET 1.800000 -1.400000 0.085000
			CHANNELS 3 Zrotation Yrotation Xrotation
			JOINT LeftLeg
			{
				OFFSET 2.215000 -6.000000 0.000000
				CHANNELS 3 Zrotation Yrotation Xrotation
				JOINT LeftFoot
				{
					OFFSET 2.500000 -6.900000 0.000000
					CHANNELS 3 Zrotation Yrotation Xrotation
					JOINT LeftToeBase
					{
						OFFSET 0.200000 -0.500000 1.950000
						CHANNELS 3 Zrotation Yrotation Xrotation
						End Site
						{
							OFFSET 0.000000 0.000000 0.000000
						}
					}
				}
			}
		}
	}
	JOINT RHipJoint
	{
		OFFSET 0.000000 0.000000 0.000000
		CHANNELS 3 Zrotation Yrotation Xrotation
		JOINT RightUpLeg
		{
			OFFSET -1.800000 -1.400000 0.085000
			CHANNELS 3 Zrotation Yrotation Xrotation
			JOINT RightLeg
			{
				OFFSET -2.215000 -6.000000 0.000000
				CHANNELS 3 Zrotation Yrotation Xrotation
				JOINT RightFoot
				{
					OFFSET -2.500000 -6.900000 0.000000
					CHANNELS 3 Zrotation Yrotation Xrotation
					JOINT RightToeBase
					{
						OFFSET -0.200000 -0.500000 1.950000
						CHANNELS 3 Zrotation Yrotation Xrotation
						End Site
						{
							OFFSET 0.000000 0.000000 0.000000
						}
					}
				}
			}
		}
	}
	JOINT LowerBack
	{
		OFFSET 0.000000 0.000000 0.000000
		CHANNELS 3 Zrotation Yrotation Xrotation
		JOINT Spine
		{
			OFFSET -0.087000 1.940000 -0.288900
			CHANNELS 3 Zrotation Yrotation Xrotation
			JOINT Spine1
			{
				OFFSET 0.000000 1.950000 0.060000
				CHANNELS 3 Zrotation Yrotation Xrotation
				JOINT Neck
				{
					OFFSET 0.000000 0.000000 0.000000
					CHANNELS 3 Zrotation Yrotation Xrotation
					JOINT Neck1
					{
						OFFSET 0.000000 1.600000 0.340000
						CHANNELS 3 Zrotation Yrotation Xrotation
						JOINT Head
						{
							OFFSET 0.000000 1.667000 -0.240000
							CHANNELS 3 Zrotation Yrotation Xrotation
							End Site
							{
								OFFSET 0.000000 0.000000 0.000000
							}
						}
					}
				}
				JOINT LeftShoulder
				{
					OFFSET 0.000000 0.000000 0.000000
					CHANNELS 3 Zrotation Yrotation Xrotation
					JOINT LeftArm
					{
						OFFSET 2.700000 1.550000 -0.730000
						CHANNELS 3 Zrotation Yrotation Xrotation
						JOINT LeftForeArm
						{
							OFFSET 5.450000 0.000000 0.000000
							CHANNELS 3 Zrotation Yrotation Xrotation
							JOINT LeftHand
							{
								OFFSET 3.450000 0.000000 0.000000
								CHANNELS 3 Zrotation Yrotation Xrotation
								JOINT LeftHandIndex1
								{
									OFFSET 0.750000 0.000000 0.000000
									CHANNELS 3 Zrotation Yrotation Xrotation
									End Site
									{
										OFFSET 0.000000 0.000000 0.000000
									}
								}
							}
						}
					}
				}
				JOINT RightShoulder
				{
					OFFSET 0.000000 0.000000 0.000000
					CHANNELS 3 Zrotation Yrotation Xrotation
					JOINT RightArm
					{
						OFFSET -2.700000 1.550000 -0.730000
						CHANNELS 3 Zrotation Yrotation Xrotation
						JOINT RightForeArm
						{
							OFFSET -5.450000 0.000000 0.000000
							CHANNELS 3 Zrotation Yrotation Xrotation
							JOINT RightHand
							{
								OFFSET -3.450000 0.000000 0.000000
								CHANNELS 3 Zrotation Yrotation Xrotation
								JOINT RightHandIndex1
								{
									OFFSET -0.750000 0.000000 0.000000
									CHANNELS 3 Zrotation Yrotation Xrotation
									End Site
									{
										OFFSET 0.000000 0.000000 0.000000
									}
								}
							}
						}
					}
				}
			}
		}
	}
}
MOTION
Frames: 12
Frame Time: 0.016667
-0.398810 16.908080 -5.982700 -3.332898 4.425419 6.023366 -15.387197 13.747329 3.439104 14.097369 -2.012299 -29.813553 -1.425351 6.058668 21.215757 -0.505760 4.153672 2.900144 0.288010 0.132410 0.393740 17.935761 -10.774276 2.112292 -15.519688 2.104661 -17.704286 4.600062 -5.511148 19.320354 -0.174034 -3.206004 3.118577 0.135770 -0.043700 0.122050 -2.894606 -3.056696 -7.288446 7.559535 0.717136 14.076216 8.385287 1.159818 1.319062 1.402653 -5.504740 -9.559408 -9.539657 15.131908 16.486547 -6.150810 16.174150 -26.579730 -12.809147 0.631727 2.578346 -55.196942 2.892353 -6.247918 -12.271130 -9.396926 -1.043221 -3.815155 2.797768 0.539690 -0.056230 0.173730 -0.011660 11.483858 5.278422 6.276177 41.761250 0.305435 -7.888212 58.122423 84.937138 40.860180 2.465620 -1.373852 -0.208490 0.192400 0.002680 -0.306180 
-0.386560 16.920480 -5.999270 -3.311368 5.999943 5.961314 -15.408048 13.778295 3.468770 13.663532 -2.077118 -30.071564 -1.115615 5.758584 20.458426 -0.541059 3.978102 2.951061 0.286130 0.142950 0.414470 17.903795 -10.793144 2.098803 -15.300371 2.081818 -17.175946 4.345759 -5.479057 19.193688 -0.193992 -3.178588 3.128008 0.135820 -0.064540 0.127490 -2.854324 -3.096510 -7.331350 8.610481 0.619760 14.949047 8.730732 1.236826 0.838321 2.334258 -4.064144 -9.343572 -6.981899 15.591952 16.889278 -6.476080 17.539490 -28.446160 -11.621988 1.561742 2.479269 -55.707893 3.983706 -7.055427 -14.500877 -9.097390 -1.173429 -3.820803 2.770875 0.573510 -0.061000 0.205900 -0.030300 8.401536 3.524108 5.459395 40.252057 1.518990 -5.894867 90.082598 85.212779 66.885137 4.072206 2.760714 -0.214600 0.194980 0.006260 -0.327780 
-0.381000 16.930390 -6.010690 -3.253187 7.456695 5.784466 -15.398097 13.755388 3.466465 13.218136 -2.114312 -30.101343 -0.776508 5.488993 19.851317 -0.575340 3.821523 3.000623 0.275760 0.135720 0.435590 17.895350 -10.873844 2.121610 -15.237272 2.016530 -16.460873 4.389627 -5.495207 18.712781 -0.213147 -3.173051 3.128678 0.127970 -0.083940 0.126710 -2.891559 -2.915826 -7.405741 9.831551 0.847435 15.822198 9.357554 1.821271 0.219066 2.712464 -3.155022 -9.294946 -5.354205 15.841393 17.489073 -7.222320 18.466440 -29.971890 -10.546952 1.767887 2.726305 -56.183378 5.203115 -8.007105 -16.778241 -9.196507 -1.280703 -3.814716 2.749453 0.604560 -0.069420 0.230530 -0.052080 6.433991 3.302257 4.756094 37.601721 -0.869843 -13.684221 119.906928 74.549304 95.047137 2.400000 0.692022 -0.225570 0.201200 0.013830 -0.348710 
-0.374150 16.939360 -6.024530 -2.894360 9.047826 5.791886 -15.397915 13.757825 3.484246 12.332719 -2.301613 -30.375554 -0.311275 5.161510 19.304344 -0.619937 3.653272 3.075968 0.286370 0.144800 0.483500 17.881423 -10.908982 2.118436 -15.549608 1.962544 -15.880997 4.398719 -5.519327 18.431004 -0.224732 -3.186238 3.127585 0.143220 -0.095950 0.110740 -2.912718 -2.889790 -7.426748 10.947482 0.894236 16.410190 9.464177 2.158747 0.115678 3.179953 -3.022395 -9.313829 -5.077587 15.999345 17.118072 -8.987150 18.993640 -31.289370 -9.984978 2.778459 2.394136 -55.731049 6.265556 -8.699843 -18.783628 -9.453421 -1.340603 -3.810657 2.702755 0.625860 -0.070700 0.245790 -0.058930 4.853267 2.445294 4.980073 34.602073 -1.203021 -11.609210 140.022037 71.851274 117.565880 1.960792 -0.804878 -0.250910 0.232000 0.000250 -0.371670 
-0.378390 16.950880 -6.030850 -2.313682 10.617059 6.004216 -15.374705 13.670223 3.480573 11.291439 -2.548210 -30.703243 0.068555 4.881666 18.945929 -0.713771 3.556998 3.122795 0.305580 0.148960 0.504290 17.906812 -10.960270 2.118519 -16.067130 1.917770 -15.403430 4.574930 -5.557169 18.022215 -0.216550 -3.254637 3.088409 0.189010 -0.065450 0.100670 -3.019596 -2.686334 -7.381673 11.795882 1.229831 15.867996 9.873219 2.491699 0.528189 2.928472 -3.330598 -9.062237 -5.524820 15.577773 16.599871 -8.448910 18.013680 -30.442100 -9.856080 3.708107 2.035958 -54.853746 6.702280 -8.711880 -20.484101 -9.861972 -1.324801 -3.833890 2.685865 0.631540 -0.051060 0.218160 -0.060110 5.132496 1.837389 4.933367 31.637320 -1.067601 -9.303196 157.625935 68.918479 138.149278 1.859996 -1.372086 -0.292870 0.276020 0.015650 -0.386080 
-0.380060 16.961960 -6.044580 -1.681632 12.348804 6.144345 -15.351099 13.602415 3.475448 10.082281 -2.824291 -30.972808 0.686677 4.517583 18.476904 -0.774330 3.420742 3.191894 0.284790 0.120750 0.476180 17.927039 -10.985345 2.141344 -16.969101 1.881238 -14.851611 5.426516 -5.845217 17.719242 -0.204233 -3.401931 3.037587 0.201550 -0.015310 0.092160 -3.127577 -2.557988 -7.371580 12.669074 1.334016 15.530039 9.869523 2.654515 0.791914 2.762556 -3.937362 -9.027910 -6.488014 15.363056 16.611706 -7.894290 17.117280 -28.892840 -9.341974 4.439143 1.906897 -54.714490 7.255007 -8.891195 -20.923758 -10.625143 -1.228098 -3.863006 2.660240 0.620570 -0.021890 0.180850 -0.058820 4.865455 1.614314 4.995592 29.503582 -0.879696 -7.744394 165.032100 65.855705 146.557553 1.851266 -1.537934 -0.325970 0.313880 0.047460 -0.380210 
-0.383070 16.965020 -6.053280 -1.119401 13.357091 5.858607 -15.321575 13.610973 3.447301 9.299685 -2.877092 -30.598486 0.828942 4.373628 18.191143 -0.783532 3.350982 3.232681 0.275910 0.106550 0.454260 17.940494 -11.022933 2.153198 -17.754680 1.847142 -14.149726 5.860180 -6.044049 17.628461 -0.203130 -3.518734 3.003585 0.200490 0.009450 0.082620 -3.225477 -2.513632 -7.373730 13.581050 1.223129 15.513598 9.899058 2.643494 1.150101 2.502894 -5.084588 -9.149254 -8.406140 15.424078 17.371522 -7.500190 16.224620 -27.541080 -8.233838 5.131410 2.206442 -55.157389 8.654067 -9.621375 -21.660275 -11.950036 -1.057868 -3.843394 2.654580 0.609700 -0.017640 0.161710 -0.050640 4.192533 1.936960 4.886322 27.299248 0.616483 -6.244127 167.501499 63.096774 148.900695 1.869383 -1.600033 -0.333030 0.334620 0.058970 -0.364440 
-0.386280 16.965520 -6.069860 -0.880470 13.279585 5.092266 -15.297315 13.751519 3.405987 9.083491 -2.651181 -29.711228 0.794928 4.356983 17.930739 -0.736169 3.323342 3.238860 0.262820 0.093630 0.409910 17.933189 -11.032992 2.158995 -18.194523 1.909927 -13.681586 5.967687 -6.183556 18.061575 -0.203544 -3.592231 2.976188 0.177120 0.012970 0.086350 -3.270140 -2.699289 -7.408068 14.668882 0.795308 16.072750 10.276032 2.479853 1.417258 2.216122 -7.037854 -9.642308 -11.959748 16.596449 19.189027 -6.849440 15.804690 -25.452460 -6.186629 5.550134 3.245586 -57.097258 10.850854 -10.889040 -23.253669 -13.712010 -0.812834 -3.777080 2.702292 0.590300 -0.033300 0.156920 -0.042730 2.711444 3.294875 4.597539 24.397567 3.656869 -5.040209 166.636340 61.495095 147.209915 1.899296 -1.608724 -0.303780 0.316480 0.070140 -0.331900 
-0.391340 16.963590 -6.080200 -0.191316 13.488114 5.297746 -15.258204 13.731193 3.395339 8.354713 -2.735578 -29.463798 0.652544 4.268149 17.490200 -0.702577 3.225790 3.286173 0.270330 0.115030 0.370250 17.966360 -11.025688 2.184809 -19.156343 2.054526 -13.886904 6.414187 -6.332636 18.116767 -0.201405 -3.666464 2.948526 0.182270 0.034170 0.080880 -3.388025 -2.672463 -7.400251 15.404437 0.351125 15.857054 9.891497 2.108227 1.358710 1.807864 -8.657172 -10.132402 -15.120814 18.145100 19.312051 -5.719820 15.864380 -23.360450 -4.558615 5.672094 4.214575 -58.632775 13.094124 -12.079896 -23.446090 -13.445478 -1.011631 -3.745461 2.719349 0.557070 -0.033580 0.143370 -0.014780 1.915643 4.458118 4.411593 22.666609 6.121361 -3.574639 164.004665 59.158197 141.587350 1.925889 -1.636097 -0.282230 0.314130 0.062410 -0.296330 
-0.401230 16.968640 -6.093710 0.631628 14.715356 5.856566 -15.204014 13.547754 3.375953 7.117721 -3.006008 -29.727389 0.947564 4.038916 17.259489 -0.721813 3.099743 3.353090 0.297110 0.157320 0.340200 18.039060 -11.077880 2.218843 -20.127114 2.215384 -14.185725 7.008863 -6.543176 18.219475 -0.196101 -3.817192 2.893585 0.224620 0.073660 0.076960 -3.599395 -2.282663 -7.332253 15.979258 0.754905 14.840805 9.454325 2.333860 1.740514 1.185104 -9.464382 -10.151504 -16.628277 18.520714 18.264627 -4.748790 15.254740 -21.564080 -3.419144 6.060778 4.521475 -58.488897 13.771069 -12.172273 -24.339389 -13.087603 -1.057778 -3.745939 2.756396 0.511370 -0.004350 0.106910 0.019920 1.949983 4.681918 4.322633 21.912587 7.148772 -2.331648 164.028106 57.369701 140.460601 1.908345 -1.717208 -0.278570 0.324590 0.052710 -0.271620 
-0.408720 16.972770 -6.099300 1.424553 15.570364 6.516255 -15.132285 13.335000 3.350795 6.045258 -3.244658 -29.749723 0.928379 3.822068 16.507322 -0.723872 2.920956 3.443336 0.342500 0.232980 0.342970 18.131026 -11.128631 2.271607 -21.212341 2.406032 -14.679788 7.694877 -6.758252 18.223735 -0.206227 -3.949045 2.844005 0.274310 0.087900 0.064540 -3.852698 -1.829258 -7.270752 16.996813 0.842157 14.000375 8.014033 2.358444 2.042419 0.808818 -10.243629 -10.204199 -18.085884 19.273567 16.898648 -4.816280 15.304840 -20.809080 -2.329467 6.453389 4.907009 -58.451874 14.924124 -12.696063 -24.527012 -13.939199 -0.919886 -3.725372 2.784531 0.464360 0.012940 0.094170 0.056570 1.494905 4.868598 4.131386 22.539950 9.224709 -0.604402 161.255657 55.695091 134.334115 1.912887 -1.781154 -0.263560 0.337120 0.014240 -0.248650 
-0.411100 16.980160 -6.101620 2.084355 15.638781 6.862794 -15.080880 13.237754 3.320335 5.274363 -3.318726 -29.300598 0.829226 3.683329 15.779055 -0.688460 2.794106 3.503546 0.335230 0.237350 0.317610 18.184525 -11.163832 2.326558 -22.266866 2.662076 -15.232458 8.200822 -7.019947 18.635487 -0.203978 -4.078820 2.791525 0.264790 0.099270 0.073250 -4.009383 -1.566146 -7.255138 17.869782 0.726034 13.614854 6.784563 2.262945 2.218798 0.834160 -11.050833 -10.775982 -19.789770 20.539837 16.515988 -5.377280 16.025110 -19.305820 -0.661798 6.120220 5.795572 -60.219776 16.398123 -13.764535 -23.967277 -14.448203 -0.961235 -3.715238 2.809969 0.421470 0.030270 0.081120 0.070100 -0.205816 5.978892 4.174441 24.357124 12.236463 0.839540 157.207745 55.073484 126.516788 1.939634 -1.801398 -0.238520 0.310640 0.005980 -0.226790 
